<?xml version="1.0" encoding="UTF-8" standalone="no" ?>
<!DOCTYPE svg PUBLIC "-//W3C//DTD SVG 1.1//EN" "http://www.w3.org/Graphics/SVG/1.1/DTD/svg11.dtd">
<svg xmlns="http://www.w3.org/2000/svg" xmlns:xlink="http://www.w3.org/1999/xlink" version="1.1" width="354.67760000000004" height="376.1174" xml:space="preserve">
<desc>Created with Fabric.js 1.6.0-rc.1</desc>
<defs></defs>
<g style="stroke: none; stroke-width: 1; stroke-dasharray: none; stroke-linecap: butt; stroke-linejoin: miter; stroke-miterlimit: 10; fill: none; fill-rule: nonzero; opacity: 1;" transform="translate(10 10) scale(0.86 0.86)" >
  <path d="M 194.551 55.498 c 0 117.262 -89.928 105.358 -88.123 184.736 c 1.019 44.816 33.92 59.49 56.569 59.49 c -10.146 -11.727 -14.629 -78.955 53.371 -95.955 c 2.229 45.139 44 39 37.834 91.167 c 0 0 52.252 -6.531 57.611 -64.446 C 321.688 123.761 194.551 55.498 194.551 55.498 z" style="stroke: none; stroke-width: 1; stroke-dasharray: none; stroke-linecap: butt; stroke-linejoin: miter; stroke-miterlimit: 10; fill: #46adfc; fill-rule: nonzero; opacity: 1;" transform=" matrix(1 0 0 1 0 0) " stroke-linecap="round" />
  <path d="M 130.224 134.669 L 130.224 134.669 C 193.5 82 143.5 38 149.5 0 l 0 0 l 0 0 C 84.5 54 122.575 104.307 130.224 134.669 L 130.224 134.669 z" style="stroke: none; stroke-width: 1; stroke-dasharray: none; stroke-linecap: butt; stroke-linejoin: miter; stroke-miterlimit: 10; fill: #2245f2; fill-rule: nonzero; opacity: 1;" transform=" matrix(1 0 0 1 0 0) " stroke-linecap="round" />
  <path d="M 385.443 400.995 l -84.73 -50.13 l -1.206 -9.923 c -0.433 -3.563 -3.659 -6.101 -7.236 -5.669 c -3.563 0.433 -6.102 3.673 -5.668 7.237 l 0.001 0.008 l -67.294 -39.814 l 14.449 -8.549 c 3.09 -1.828 4.112 -5.814 2.284 -8.904 c -1.827 -3.09 -5.816 -4.112 -8.903 -2.284 l -14.095 8.339 v -12.913 c 0 -3.59 -2.91 -6.5 -6.5 -6.5 s -6.5 2.91 -6.5 6.5 v 12.913 l -14.096 -8.339 c -3.085 -1.827 -7.075 -0.806 -8.903 2.284 c -1.828 3.09 -0.806 7.076 2.284 8.904 l 14.45 8.549 l -63.559 37.604 c -0.037 -3.003 -2.16 -5.676 -5.223 -6.289 c -3.524 -0.705 -6.944 1.578 -7.649 5.098 l -2 9.99 l -87.702 51.888 c -3.09 1.828 -4.112 5.814 -2.284 8.904 c 1.213 2.051 3.378 3.191 5.6 3.191 c 1.125 0 2.266 -0.292 3.304 -0.907 l 46.223 -27.347 l 11.337 4.863 c 0.836 0.358 1.704 0.528 2.56 0.528 c 2.521 0 4.92 -1.476 5.977 -3.939 c 1.415 -3.299 -0.112 -7.121 -3.411 -8.536 l -2.602 -1.116 l 75.961 -44.941 l -38.52 40.896 l -4.513 -5.149 c -2.364 -2.699 -6.473 -2.97 -9.172 -0.604 c -2.7 2.366 -2.97 6.473 -0.604 9.173 l 5.335 6.087 l -18.871 20.035 c -2.462 2.613 -2.339 6.727 0.274 9.188 c 2.614 2.461 6.729 2.339 9.188 -0.275 l 22.942 -24.357 c 0.005 -0.006 0.011 -0.012 0.016 -0.017 l 13.983 -14.846 l 13.517 1.048 c 0.171 0.013 0.34 0.02 0.509 0.02 c 3.362 0 6.21 -2.59 6.474 -5.998 c 0.277 -3.579 -2.399 -6.706 -5.979 -6.983 l -3.076 -0.238 l 32.545 -34.552 l -19.584 79.92 c -0.854 3.487 1.279 7.006 4.767 7.86 c 3.49 0.855 7.006 -1.28 7.86 -4.766 l 19.144 -78.122 l 11.836 48.302 c 0.001 0.005 0.002 0.01 0.004 0.014 l 7.304 29.806 c 0.728 2.967 3.384 4.955 6.309 4.954 c 0.512 0 1.032 -0.061 1.552 -0.188 c 3.487 -0.854 5.621 -4.374 4.767 -7.86 l -6.564 -26.788 l 6.494 -8.615 c 2.161 -2.867 1.589 -6.942 -1.278 -9.103 c -2.864 -2.16 -6.941 -1.588 -9.103 1.278 l -0.107 0.142 l -9.026 -36.834 l 47.786 50.734 l -1.052 0.042 c -3.588 0.142 -6.38 3.165 -6.238 6.752 c 0.139 3.5 3.02 6.243 6.49 6.243 c 0.087 0 0.175 -0.002 0.262 -0.005 l 12.352 -0.489 l 21.331 22.647 c 1.279 1.358 3.004 2.044 4.732 2.043 c 1.599 0 3.2 -0.586 4.456 -1.768 c 2.613 -2.461 2.736 -6.575 0.274 -9.188 l -66.345 -70.438 l 48.5 28.695 c 0 0 0.001 0.001 0.002 0.001 l 27.447 16.239 c -2.149 1.118 -3.588 3.391 -3.505 5.973 c 0.114 3.517 3 6.29 6.493 6.29 c 0.071 0 0.143 -0.001 0.214 -0.003 l 16.613 -0.537 l 40.279 23.831 c 3.087 1.827 7.076 0.806 8.904 -2.284 C 389.555 406.809 388.533 402.822 385.443 400.995 z" style="stroke: none; stroke-width: 1; stroke-dasharray: none; stroke-linecap: butt; stroke-linejoin: miter; stroke-miterlimit: 10; fill: #ffc044; fill-rule: nonzero; opacity: 1;" transform=" matrix(1 0 0 1 0 0) " stroke-linecap="round" />
</g>
</svg>
